<?xml version="1.0" encoding="utf-8"?>
<!-- Generator: Adobe Illustrator 24.3.0, SVG Export Plug-In . SVG Version: 6.00 Build 0)  -->
<svg version="1.1" id="Laag_1" xmlns="http://www.w3.org/2000/svg" xmlns:xlink="http://www.w3.org/1999/xlink" x="0px" y="0px"
	 viewBox="0 0 329.3 112.2" style="enable-background:new 0 0 329.3 112.2;" xml:space="preserve">
<style type="text/css">
	.st0{fill:#FFA626;}
	.st1{fill:url(#SVGID_1_);}
	.st2{fill:url(#SVGID_2_);}
	.st3{fill:url(#SVGID_3_);}
	.st4{fill:url(#SVGID_4_);}
	.st5{fill:#ffffff;}
</style>
<g>
	<path class="st0" d="M108,0.5H56.1C25.4,0.5,0.5,25.4,0.5,56.1V108c0,2.1,1.7,3.8,3.8,3.8h51.8c30.7,0,55.6-24.9,55.6-55.6V4.2
		C111.7,2.2,110.1,0.5,108,0.5z"/>

		<linearGradient id="SVGID_1_" gradientUnits="userSpaceOnUse" x1="-12.2497" y1="92.5797" x2="203.4903" y2="220.9697" gradientTransform="matrix(1 0 0 -1 0 166.3602)">
		<stop  offset="0" style="stop-color:#66B8E8"/>
		<stop  offset="1" style="stop-color:#0089D9"/>
	</linearGradient>
	<path class="st1" d="M36.7,84.4c6.8,0,12.8-4.5,14.6-11.1L61,38.3c1.8-6.6,7.8-11.1,14.6-11.1h36.6v-23c0-2.3-1.9-4.2-4.2-4.2H56.1
		C25.1,0,0,25.1,0,56.1c0,0,0,0,0,0v28.3H36.7z"/>

		<linearGradient id="SVGID_2_" gradientUnits="userSpaceOnUse" x1="0" y1="124.1352" x2="112.2" y2="124.1352" gradientTransform="matrix(1 0 0 -1 0 166.3602)">
		<stop  offset="0" style="stop-color:#0089D9"/>
		<stop  offset="1" style="stop-color:#66B8E8"/>
	</linearGradient>
	<path class="st2" d="M8.4,84.4c6.8,0,12.8-4.5,14.6-11.1l9.7-35.1c1.8-6.5,7.8-11.1,14.5-11.1h64.9v-23c0-2.3-1.9-4.2-4.2-4.2H56.1
		C25.1,0,0,25.1,0,56.1c0,0,0,0,0,0v28.3H8.4z"/>

		<linearGradient id="SVGID_3_" gradientUnits="userSpaceOnUse" x1="24.387" y1="82.1287" x2="513.847" y2="240.9287" gradientTransform="matrix(1 0 0 -1 0 166.3602)">
		<stop  offset="0" style="stop-color:#FFA626"/>
		<stop  offset="1" style="stop-color:#E70641"/>
	</linearGradient>
	<path class="st3" d="M75.6,27.2c-6.8,0-12.8,4.5-14.6,11.1l-9.7,35.1c-1.8,6.6-7.8,11.1-14.6,11.1H0V108c0,2.3,1.9,4.2,4.2,4.2
		h51.8c31,0,56.1-25.1,56.1-56.1l0,0v-29H75.6z"/>

		<linearGradient id="SVGID_4_" gradientUnits="userSpaceOnUse" x1="-15.2519" y1="135.8181" x2="335.7081" y2="-52.7119" gradientTransform="matrix(1 0 0 -1 0 166.3602)">
		<stop  offset="0" style="stop-color:#FFA626"/>
		<stop  offset="1" style="stop-color:#E70641"/>
	</linearGradient>
	<path class="st4" d="M104,27.2c-6.8,0-12.8,4.5-14.6,11.1l-9.7,35.1c-1.8,6.6-7.8,11.1-14.6,11.1H0V108c0,2.3,1.9,4.2,4.2,4.2h51.8
		c31,0,56.1-25.1,56.1-56.1l0,0v-29H104z"/>
	<path class="st5" d="M167.7,11.7h2.8l-13.9,37.2h-2.3l-13.9-37.2h2.8l9.4,25.3c1.4,3.8,2.4,6.7,2.9,8.6c0.3-1.3,1-3.3,2-5.9
		L167.7,11.7z"/>
	<path class="st5" d="M175.1,13.5c0-1.6,0.5-2.4,1.6-2.4c0.5,0,1,0.2,1.2,0.6c0.3,0.5,0.5,1.2,0.4,1.8c0,0.6-0.1,1.3-0.4,1.8
		c-0.3,0.4-0.7,0.7-1.2,0.7C175.6,16,175.1,15.2,175.1,13.5z M178,48.9h-2.5V21.2h2.5V48.9z"/>
	<path class="st5" d="M203.3,41.7c0.1,2.3-1,4.4-2.8,5.7c-1.9,1.3-4.6,2-8,2c-3,0.1-6.1-0.4-8.8-1.7V45c2.7,1.4,5.7,2.1,8.8,2.1
		c2.2,0.1,4.3-0.3,6.2-1.4c1.3-0.7,2.1-2.1,2.1-3.6c0-1.4-0.6-2.7-1.7-3.5c-1.7-1.2-3.6-2.2-5.6-2.8c-2-0.7-4-1.5-5.8-2.6
		c-1-0.6-1.9-1.4-2.5-2.4c-0.6-1-0.9-2.2-0.9-3.3c0-2,0.9-3.8,2.6-4.9c2.2-1.3,4.7-2,7.3-1.8c2.9,0,5.8,0.6,8.5,1.7l-0.9,2.3
		c-2.4-1.1-5-1.6-7.6-1.7c-1.9-0.1-3.7,0.3-5.4,1.1c-1.2,0.6-2,1.8-2,3.1c0,1.3,0.5,2.6,1.5,3.5c1.8,1.3,3.9,2.2,6,2.9
		c1.9,0.6,3.7,1.4,5.5,2.4c1,0.6,1.9,1.5,2.6,2.5C203,39.4,203.3,40.6,203.3,41.7z"/>
	<path class="st5" d="M243.7,48.9V30.8c0-2.7-0.5-4.6-1.6-5.9c-1.3-1.3-3-2-4.8-1.8c-2.8,0-4.9,0.8-6.3,2.4s-2,4-2,7.4v16.2h-2.6V30
		c0-4.7-2.1-7-6.4-7c-2.9,0-5,0.9-6.3,2.5s-2,4.4-2,8.1v15.3h-2.5V21.2h2.1l0.5,3.8h0.2c0.7-1.4,1.9-2.5,3.3-3.2
		c1.4-0.8,3-1.2,4.7-1.1c4.4,0,7.2,1.6,8.4,4.9h0.1c0.9-1.5,2.1-2.8,3.6-3.6c1.6-0.9,3.4-1.3,5.2-1.3c3,0,5.3,0.8,6.8,2.4
		s2.3,4.2,2.3,7.7v18.1H243.7z"/>
	<path class="st5" d="M270.8,48.9l-0.6-4.4h-0.2c-1.1,1.6-2.6,2.8-4.3,3.8c-1.6,0.8-3.4,1.2-5.2,1.1c-2.3,0.1-4.6-0.6-6.3-2.1
		c-1.6-1.5-2.4-3.6-2.3-5.8c-0.1-2.6,1.2-4.9,3.4-6.3c2.2-1.5,5.5-2.3,9.8-2.4l5.3-0.2v-1.8c0-2.6-0.5-4.6-1.6-5.9
		c-1.1-1.3-2.8-2-5.2-2c-2.8,0.1-5.5,0.8-8,2.1l-0.9-2.2c2.8-1.4,5.9-2.1,9-2.1c3,0,5.3,0.8,6.8,2.4s2.3,4,2.2,7.4v18.4H270.8z
		 M260.6,47.1c2.6,0.1,5.1-0.8,7-2.5c1.8-1.9,2.7-4.4,2.5-7v-2.8l-4.8,0.2c-3.9,0.2-6.7,0.8-8.3,1.8c-1.6,1-2.6,2.9-2.5,4.8
		c-0.1,1.5,0.5,3,1.6,4C257.4,46.7,259,47.2,260.6,47.1z"/>
	<path class="st5" d="M166.9,63.3h4.7l-13.4,37.2h-4.3l-13.4-37.2h4.6l8.6,24.1c1,2.6,1.8,5.3,2.4,8.1c0.6-2.8,1.4-5.5,2.4-8.2
		L166.9,63.3z"/>
	<path class="st5" d="M185.1,101.1c-4.1,0-7.4-1.3-9.8-3.8s-3.6-6-3.6-10.5c0-4.5,1.1-8.1,3.3-10.7c2.2-2.7,5.5-4.1,8.9-4
		c3.1-0.1,6.2,1.1,8.3,3.4c2.1,2.5,3.2,5.8,3.1,9.1v2.7h-19.2c0.1,3.3,0.9,5.8,2.5,7.5c1.7,1.8,4.2,2.7,6.6,2.5
		c3.1,0,6.1-0.7,8.9-1.9v3.8c-1.4,0.6-2.8,1.1-4.2,1.4C188.4,100.9,186.8,101.1,185.1,101.1z M184,75.7c-2-0.1-4,0.7-5.4,2.2
		c-1.4,1.7-2.3,3.8-2.4,6.1h14.6c0.1-2.2-0.5-4.4-1.8-6.1C187.8,76.3,185.9,75.6,184,75.7z"/>
	<path class="st5" d="M214.4,72.1c1.1,0,2.2,0.1,3.3,0.3l-0.6,3.9c-1-0.2-2-0.4-3-0.4c-2.2,0-4.4,1-5.8,2.8
		c-1.6,1.9-2.5,4.3-2.4,6.8v15h-4.2V72.7h3.5l0.5,5.2h0.2c0.9-1.7,2.2-3.1,3.7-4.2C211.1,72.7,212.7,72.1,214.4,72.1z"/>
	<path class="st5" d="M241.2,100.6H221v-2.9l15.2-21.8h-14.3v-3.3h18.9v3.3l-15,21.3h15.4L241.2,100.6z"/>
	<path class="st5" d="M250.6,72.7v18.1c-0.1,1.8,0.4,3.7,1.6,5.1c1,1.1,2.7,1.7,4.9,1.7c2.9,0,5.1-0.8,6.4-2.4c1.4-1.6,2-4.2,2-7.8
		V72.7h4.2v27.9h-3.5l-0.6-3.8h-0.2c-0.9,1.4-2.1,2.5-3.6,3.2c-1.6,0.8-3.4,1.1-5.3,1.1c-3.4,0-5.9-0.8-7.6-2.4
		c-1.7-1.6-2.5-4.2-2.5-7.7V72.7H250.6z"/>
	<path class="st5" d="M277.1,65.1c-0.1-0.8,0.2-1.5,0.7-2.1c0.5-0.5,1.1-0.7,1.8-0.7c0.7,0,1.3,0.2,1.8,0.7c0.5,0.6,0.8,1.3,0.7,2.1
		c0.1,0.8-0.2,1.6-0.7,2.1c-1,0.9-2.5,0.9-3.5,0C277.3,66.6,277.1,65.9,277.1,65.1z M281.7,100.6h-4.2V72.7h4.2V100.6z"/>
	<path class="st5" d="M325.1,100.6V82.4c0.1-1.8-0.4-3.6-1.4-5c-1.1-1.2-2.8-1.8-4.4-1.7c-2.6,0-4.6,0.8-5.8,2.3
		c-1.3,1.5-1.9,3.8-1.9,7v15.6h-4.2V82.4c0.1-1.8-0.4-3.6-1.4-5c-1.2-1.2-2.8-1.8-4.5-1.7c-2.7,0-4.6,0.8-5.8,2.4
		c-1.2,1.6-1.9,4.2-1.9,7.8v14.7h-4.2V72.7h3.4l0.7,3.8h0.2c0.8-1.4,2-2.5,3.4-3.2c1.5-0.8,3.2-1.2,4.9-1.1c4.4,0,7.2,1.6,8.6,4.7
		h0.2c0.9-1.5,2.1-2.7,3.6-3.5c1.7-0.9,3.5-1.3,5.4-1.3c3.2,0,5.5,0.8,7.1,2.4s2.4,4.2,2.4,7.8v18.2L325.1,100.6z"/>
</g>
</svg>
